<?xml version="1.0" standalone="no"?><!DOCTYPE svg PUBLIC "-//W3C//DTD SVG 1.1//EN" "http://www.w3.org/Graphics/SVG/1.1/DTD/svg11.dtd"><svg t="1631261716035" class="icon" viewBox="0 0 1024 1024" version="1.1" xmlns="http://www.w3.org/2000/svg" p-id="1212" width="48" height="48" xmlns:xlink="http://www.w3.org/1999/xlink"><defs><style type="text/css"></style></defs><path d="M512 887.466667c-238.933333 0-435.2-196.266667-435.2-435.2C76.8 209.066667 273.066667 12.8 512 17.066667 750.933333 17.066667 947.2 213.333333 947.2 452.266667S750.933333 887.466667 512 887.466667z" fill="#DBA352" p-id="1213"></path><path d="M512 29.866667c110.933333 0 217.6 42.666667 298.666667 123.733333 81.066667 81.066667 123.733333 183.466667 123.733333 298.666667 0 110.933333-42.666667 217.6-123.733333 298.666666-81.066667 81.066667-183.466667 123.733333-298.666667 123.733334-110.933333 0-217.6-42.666667-298.666667-123.733334-81.066667-81.066667-123.733333-183.466667-123.733333-298.666666s42.666667-217.6 123.733333-298.666667C294.4 72.533333 401.066667 29.866667 512 29.866667m0-29.866667C264.533333 0 59.733333 200.533333 59.733333 452.266667c0 247.466667 200.533333 452.266667 452.266667 452.266666s452.266667-200.533333 452.266667-452.266666C964.266667 200.533333 759.466667 0 512 0z" fill="#BC8339" p-id="1214"></path><path d="M490.666667 917.333333h42.666666v89.6h-42.666666z" fill="#DBA352" p-id="1215"></path><path d="M516.266667 934.4v59.733333h-12.8v-59.733333h12.8m29.866666-29.866667h-72.533333V1024h72.533333v-119.466667z" fill="#BC8339" p-id="1216"></path><path d="M806.4 648.533333h-72.533333c-29.866667-93.866667-119.466667-157.866667-221.866667-157.866666-102.4 0-187.733333 64-221.866667 157.866666H217.6c-12.8 0-21.333333-8.533333-21.333333-21.333333v-213.333333c0-21.333333 17.066667-38.4 38.4-38.4H256V294.4h-38.4c-12.8 0-21.333333-8.533333-21.333333-21.333333 4.266667-8.533333 8.533333-17.066667 21.333333-17.066667h588.8c12.8 0 21.333333 8.533333 21.333333 21.333333s-8.533333 21.333333-21.333333 21.333334H768v76.8h21.333333c21.333333 0 38.4 17.066667 38.4 38.4v213.333333c-4.266667 12.8-8.533333 21.333333-21.333333 21.333333zM375.466667 294.4H298.666667v76.8h76.8V294.4z m115.2 0H413.866667v76.8h76.8V294.4z m119.466666 0h-76.8v76.8h76.8V294.4z m115.2 0h-76.8v76.8H725.333333V294.4z m0 0" fill="#FFFFFF" p-id="1217"></path></svg>